<?xml version="1.0" encoding="UTF-8"?>
<!DOCTYPE svg PUBLIC "-//W3C//DTD SVG 1.0//EN" "http://www.w3.org/TR/2001/REC-SVG-20010904/DTD/svg10.dtd">
<!-- Creator: CorelDRAW X7 -->
<svg xmlns="http://www.w3.org/2000/svg" xml:space="preserve" width="12.6328mm" height="12.6328mm" version="1.0" shape-rendering="geometricPrecision" text-rendering="geometricPrecision" image-rendering="optimizeQuality" fill-rule="evenodd" clip-rule="evenodd"
viewBox="0 0 228 228"
 xmlns:xlink="http://www.w3.org/1999/xlink">
 <defs>
   <radialGradient id="id0" gradientUnits="userSpaceOnUse" gradientTransform="matrix(1 -0 -0 1 0 0)" cx="113.764" cy="113.764" r="124.598" fx="113.764" fy="113.764">
    <stop offset="0" stop-opacity="1" stop-color="#8A83B3"/>
    <stop offset="1" stop-opacity="1" stop-color="#1B1445"/>
   </radialGradient>
   <linearGradient id="id1" gradientUnits="userSpaceOnUse" x1="51.4663" y1="113.764" x2="176.061" y2="113.764">
    <stop offset="0" stop-opacity="1" stop-color="#FF9E30"/>
    <stop offset="1" stop-opacity="1" stop-color="#E67B00"/>
   </linearGradient>
   <clipPath id="id2">
    <path d="M58 78l8 0c3,-9 1,-20 23,-23 7,-1 5,0 9,-6 17,10 19,1 41,5 -3,8 -5,3 -9,12 -4,10 -6,8 -9,13 -2,4 -1,4 -4,7 -2,4 -2,2 -5,7l-7 10c-4,6 6,1 14,7 -29,1 -14,-4 -37,26 -3,4 -5,6 -7,9l-24 36c6,4 115,4 124,1 1,-6 -1,0 -1,-6 0,-4 3,-13 1,-30l-6 -2c-2,2 -1,0 -3,5 -1,5 1,6 -7,13 -6,5 -8,8 -17,10 -18,3 -35,3 -54,2 5,-12 20,-27 26,-40 3,-6 3,-4 6,-8 9,-15 19,-25 23,-31 2,-3 2,-6 4,-9 3,-4 5,-3 7,-7 4,-4 6,-12 10,-16 4,-6 10,-6 9,-18 -9,-2 -105,-2 -112,0 -4,12 -2,19 -3,33z"/>
   </clipPath>
 </defs>
 <g id="Layer_x0020_1">
  <metadata id="CorelCorpID_0Corel-Layer"/>
  <circle fill="url(#id0)" cx="114" cy="114" r="114"/>
  <path fill="url(#id1)" d="M58 78l8 0c3,-9 1,-20 23,-23 7,-1 5,0 9,-6 17,10 19,1 41,5 -3,8 -5,3 -9,12 -4,10 -6,8 -9,13 -2,4 -1,4 -4,7 -2,4 -2,2 -5,7l-7 10c-4,6 6,1 14,7 -29,1 -14,-4 -37,26 -3,4 -5,6 -7,9l-24 36c6,4 115,4 124,1 1,-6 -1,0 -1,-6 0,-4 3,-13 1,-30l-6 -2c-2,2 -1,0 -3,5 -1,5 1,6 -7,13 -6,5 -8,8 -17,10 -18,3 -35,3 -54,2 5,-12 20,-27 26,-40 3,-6 3,-4 6,-8 9,-15 19,-25 23,-31 2,-3 2,-6 4,-9 3,-4 5,-3 7,-7 4,-4 6,-12 10,-16 4,-6 10,-6 9,-18 -9,-2 -105,-2 -112,0 -4,12 -2,19 -3,33z"/>
  <g clip-path="url(#id2)">
   <g id="_439030144">
    <g>
     <path id="1" fill="#030306" d="M97 133c-1,0 -2,0 -3,0 0,0 -1,0 -1,-1 0,0 1,-2 2,-3 1,-2 1,0 2,1 0,2 0,3 0,3zm5 -11c3,0 5,1 6,3 0,1 0,2 0,3 -1,1 -2,2 -3,2 -3,0 -8,-2 -6,-7 1,-1 2,-1 3,-1zm-12 -2c3,0 5,1 4,4 -1,2 -3,3 -5,3 -3,0 -6,-2 -5,-5 1,-2 3,-3 6,-2zm10 -20c-4,-1 -8,0 -12,2 -3,1 -6,4 -7,8 -2,4 -2,8 0,12 1,4 -2,6 0,8 1,1 2,2 4,2 1,1 3,1 2,3 0,1 -1,2 -1,4 2,1 6,2 8,3 2,0 3,0 5,0 1,0 2,-1 3,-2 0,-1 -1,-3 0,-4 2,-1 6,1 8,-2 1,-1 0,-3 1,-4 0,-2 2,-2 4,-7 1,-4 2,-9 0,-12 -1,-2 -3,-5 -4,-6 -3,-3 -7,-5 -11,-5z"/>
     <path fill="#030306" d="M86 149c0,0 -2,1 -3,1 -2,0 -6,1 -7,1 -1,-1 -2,-2 -3,-2 -3,-1 -6,1 -6,3 1,2 1,2 2,3 1,1 0,2 0,4 0,2 3,4 5,2 2,-1 2,-3 5,-5 1,0 11,-4 12,-4 1,1 10,7 11,9 1,0 1,1 1,3 1,1 1,2 1,3 2,2 5,1 6,-1 1,-2 0,-3 2,-3 1,-1 1,-1 2,-3 1,-2 -1,-4 -4,-4 -4,0 -3,1 -7,-1 -1,-1 -5,-3 -6,-4 0,0 0,0 0,0 1,0 1,0 1,0l6 -2c5,-1 4,0 7,2 3,1 6,-1 5,-4 0,-1 0,-1 -1,-2 -2,-2 0,-2 0,-4 0,-2 -3,-4 -6,-3 -2,2 -1,4 -4,5 -1,1 -12,5 -13,4 0,0 -4,-3 -5,-4 -2,-1 -4,-2 -5,-4 -2,-1 -1,-4 -3,-6 -1,-2 -5,-1 -5,1 -1,2 0,3 -2,3 -1,1 -2,1 -2,2 -2,3 1,5 4,5 1,0 2,0 3,0 2,0 6,3 8,4 1,0 1,1 1,1z"/>
    </g>
   </g>
  </g>
  <path fill="none" d="M58 78l8 0c3,-9 1,-20 23,-23 7,-1 5,0 9,-6 17,10 19,1 41,5 -3,8 -5,3 -9,12 -4,10 -6,8 -9,13 -2,4 -1,4 -4,7 -2,4 -2,2 -5,7l-7 10c-4,6 6,1 14,7 -29,1 -14,-4 -37,26 -3,4 -5,6 -7,9l-24 36c6,4 115,4 124,1 1,-6 -1,0 -1,-6 0,-4 3,-13 1,-30l-6 -2c-2,2 -1,0 -3,5 -1,5 1,6 -7,13 -6,5 -8,8 -17,10 -18,3 -35,3 -54,2 5,-12 20,-27 26,-40 3,-6 3,-4 6,-8 9,-15 19,-25 23,-31 2,-3 2,-6 4,-9 3,-4 5,-3 7,-7 4,-4 6,-12 10,-16 4,-6 10,-6 9,-18 -9,-2 -105,-2 -112,0 -4,12 -2,19 -3,33z"/>
 </g>
</svg>
