<?xml version="1.0" encoding="UTF-8"?>
<!DOCTYPE svg PUBLIC "-//W3C//DTD SVG 1.0//EN" "http://www.w3.org/TR/2001/REC-SVG-20010904/DTD/svg10.dtd">
<!-- Creator: CorelDRAW X7 -->
<svg xmlns="http://www.w3.org/2000/svg" xml:space="preserve" width="44.4849mm" height="11.1807mm" version="1.0" shape-rendering="geometricPrecision" text-rendering="geometricPrecision" image-rendering="optimizeQuality" fill-rule="evenodd" clip-rule="evenodd"
viewBox="0 0 2153 541"
 xmlns:xlink="http://www.w3.org/1999/xlink">
 <defs>
   <clipPath id="id0">
    <path d="M384 132l-1 85 -3 64 12 22 36 -6 37 2 -10 -31 -7 -97 -4 -36 -60 -3z"/>
   </clipPath>
 </defs>
 <g id="Layer_x0020_1">
  <metadata id="CorelCorpID_0Corel-Layer"/>
  <path fill="#F6CC02" d="M18 93l21 1c9,-26 3,-54 62,-63 20,-3 14,0 24,-17 46,27 50,3 110,14 -7,21 -14,9 -24,32 -12,27 -15,21 -25,37 -5,9 -3,11 -9,19 -6,9 -7,4 -15,18l-18 27c-11,15 15,2 38,17 -80,3 -38,-11 -100,72 -7,9 -12,14 -18,23l-64 98c15,9 308,10 332,2 2,-15 -2,-1 -2,-18 0,-10 9,-35 3,-80l-18 -4c-4,6 -3,0 -7,13 -4,13 2,17 -18,35 -16,14 -21,22 -46,26 -48,8 -96,8 -145,6 13,-31 53,-73 70,-108 8,-15 7,-10 14,-22 25,-38 53,-66 62,-82 5,-8 7,-17 13,-24 7,-10 12,-8 19,-18 8,-13 16,-32 25,-45 11,-16 28,-16 24,-49 -22,-5 -281,-4 -302,1 -9,31 -5,52 -6,89z"/>
  <path fill="#F6CC02" d="M1732 350l8 -9c22,4 2,-1 11,8 9,3 6,1 14,6l3 -8c34,-3 83,-13 105,-27 50,-31 42,-92 8,-126 -16,-16 -115,-48 -137,-59l-5 -27 25 -22c17,1 54,-1 66,4 15,6 28,21 41,27l15 -15c-7,-25 -15,-8 -9,-45 -25,4 -51,3 -73,6 -34,6 1,-6 -29,-1 -3,0 -27,8 -32,9 -46,14 -75,81 -28,109 71,40 25,13 63,26 114,41 74,99 30,111 -8,2 -86,11 -96,-24 -16,-53 37,-9 38,-67 -30,7 -77,30 -78,56 -1,33 55,46 60,68z"/>
  <path fill="#F6CC02" d="M1547 289c2,-29 9,-19 -6,-47 -9,11 -13,23 -25,29 -19,8 -105,11 -139,-3 0,-29 -8,-49 0,-75 53,-14 71,23 77,26 12,-13 5,-59 -2,-71 -12,5 -7,16 -31,24 -13,4 -32,0 -50,3 -2,-18 -2,-32 -1,-49 1,-11 0,-12 3,-23 4,-18 1,-13 11,-19 31,0 48,4 66,21 31,29 21,41 43,32 1,-13 -15,-46 -18,-70 -20,-2 -70,1 -95,1 -18,0 -36,1 -54,1 -22,-1 -27,-9 -48,-5 -2,27 -2,12 7,21l15 18c17,26 2,150 2,176l-24 9c3,8 6,12 9,16 25,1 29,-6 60,-6l139 -1c24,-1 47,2 61,-8z"/>
  <path fill="#F6CC02" d="M1021 191c10,22 7,3 9,25 1,35 28,52 58,62 62,21 98,-4 142,6 4,12 3,27 21,21 13,-3 9,-20 9,-36l3 -76c-14,-3 -59,-4 -69,6 -2,2 33,79 -47,53 -26,-9 -47,-42 -58,-69 -12,-30 5,-112 77,-102 19,3 38,5 54,12 14,25 -1,39 33,38 4,-43 18,-73 -29,-73 -20,0 -96,0 -109,4 -65,20 -83,66 -94,129z"/>
  <path fill="#F6CC02" d="M863 58l-61 -3c-29,-1 -23,7 -23,34 0,32 -19,31 -2,47 16,-3 36,-47 63,-50 24,-3 4,-2 12,2 6,17 7,144 -5,182l-22 6 1 25 130 -4 6 -27 -33 0c-10,-66 -2,-95 -10,-136 -3,-17 0,-28 3,-47 38,9 66,48 76,55l12 -16c-6,-13 -11,-15 -18,-25 4,-26 15,-35 3,-52 -32,5 9,13 -62,11 -23,0 -46,-2 -70,-2z"/>
  <path fill="#F6CC02" d="M2007 58c-91,0 -84,-18 -84,31 0,32 -20,31 -3,47 18,-4 21,-29 51,-46 25,-13 25,-2 25,-2 5,17 6,144 -5,182l-22 6 1 25 129 -4 6 -27 -32 0c-11,-66 -2,-95 -11,-136 -3,-17 1,-28 4,-47 37,9 66,48 76,55l11 -16c-5,-13 -10,-15 -17,-25 3,-26 14,-35 2,-52 -19,3 -9,8 -25,11l-106 -2z"/>
  <path fill="#F6CC02" d="M1547 289l1 26c26,-4 91,-10 114,-2l-1 -35c-28,-2 -14,2 -32,-12l0 -157c6,-27 26,-7 28,-32 0,-7 -2,-12 -3,-17 -29,-2 -9,2 -26,8 -9,2 -17,0 -25,-1 -44,-4 -4,14 -50,-9 -8,38 -11,32 22,52l-8 33 12 12c-1,10 0,23 -1,32 -2,12 -6,6 -7,21 -2,11 3,46 3,61l-10 3c-9,6 0,8 -17,17z"/>
  <path fill="#F6CC02" d="M625 289l1 26c23,-3 31,-6 57,-6 11,1 50,2 56,4l0 -35c-29,-2 -14,2 -32,-12l-2 -117c7,-49 -10,-40 22,-60 1,0 15,5 4,-29 -28,-2 -8,11 -50,7 -44,-4 -5,14 -50,-9 -8,38 -11,32 21,52l-7 33 12 12c-1,10 0,23 -1,32 -2,12 -6,6 -7,21 -2,11 3,46 3,61l-10 3c-5,3 1,-1 -4,5 -10,11 1,4 -13,12z"/>
  <path fill="#F6CC02" d="M384 140c1,0 12,1 12,1 1,1 3,1 4,2l10 7c9,4 22,2 31,0 0,-2 0,-7 1,-8 4,-11 -1,-5 6,-12 1,-9 0,-14 2,-24 2,-8 4,-20 12,-22 31,0 48,4 66,21 30,29 21,41 43,32 1,-13 -15,-46 -18,-70 -20,-2 -70,1 -96,1 -17,0 -35,1 -53,1 -22,-1 -27,-9 -48,-5 -2,23 -2,11 12,25 1,1 4,5 5,7 14,19 13,16 11,44z"/>
  <path fill="#F9C900" d="M1741 366l-1 25 -49 1c-5,11 -2,6 0,15l52 -1c5,29 6,76 -2,102 -18,3 -32,-1 -41,-14 -10,-13 -20,-20 -33,-28 2,50 78,77 92,75 32,-4 91,-49 80,-79 -6,4 -10,7 -16,13 -16,15 -10,31 -52,33 -11,-25 -12,-69 -11,-103 16,-1 43,2 54,-4 19,-22 -34,-11 -54,-11l5 -35c-8,-5 -5,-3 -14,-6 -9,8 1,-4 -5,7 -1,1 0,14 -3,6 -1,0 -1,3 -2,4z"/>
  <path fill="#F6CC02" d="M441 150l0 18 -19 0c8,0 13,4 19,7 -7,5 10,2 -11,6 8,11 19,15 11,31 -6,12 -6,6 -9,8l-13 -7 -1 14 15 -2 -1 7 -13 31 0 1c12,-2 5,-2 14,-3 8,-2 5,-2 10,0 -3,25 5,9 -11,13l-16 0c12,15 8,3 24,17 14,11 13,7 52,7 4,-4 13,-15 18,-21l-44 -5c-7,-2 -6,-2 -11,-4 0,-30 -8,-47 0,-75 68,-17 67,35 80,23 7,-7 5,-25 -2,-30l-2 17c0,0 12,-2 -6,-21 -11,-11 -9,0 -13,-16 -28,13 -32,4 -64,9l0 -45c-7,7 -2,1 -6,12 -1,1 -1,6 -1,8z"/>
  <path fill="#F6CB02" d="M510 277c-5,6 -14,17 -18,21 24,0 48,0 72,-1 24,-1 47,2 61,-8 2,-29 9,-19 -6,-47 -17,21 -12,30 -47,32 -16,1 -14,5 -33,4 -16,0 -14,-4 -29,-1z"/>
  <path fill="#F6CC02" d="M383 163c1,0 1,1 1,2 1,2 1,3 2,3l4 16c1,1 2,2 2,3 8,-10 25,-6 38,-6 21,-4 4,-1 11,-6 -6,-3 -11,-7 -19,-7l19 0 0 -18c-9,2 -22,4 -31,0l-10 -7c-1,-1 -3,-1 -4,-2 0,0 -11,-1 -12,-1l-1 23z"/>
  <path fill="#F6CC02" d="M392 187l0 17c18,8 14,-2 18,15l9 -6 13 7c3,-2 3,4 9,-8 8,-16 -3,-20 -11,-31 -13,0 -30,-4 -38,6z"/>
  <path fill="#F6CC02" d="M385 254c-4,9 3,7 -5,11 0,1 1,0 1,1 1,1 2,1 2,1 11,2 -4,-2 7,1 0,0 15,4 15,4 -27,-1 -2,-1 -13,5 12,1 10,0 20,5l-1 -10c6,-3 1,-1 5,2l16 0 -13 -10 0 -1 13 -31c-21,6 -10,4 -16,11 -16,-3 -13,-2 -21,-10 0,-1 -1,-2 -2,-3 0,-1 -1,-2 -2,-3 -4,17 -1,6 -2,21 0,11 8,15 -4,6z"/>
  <path fill="#F6CC02" d="M412 282c-10,-5 -8,-4 -20,-5l-35 13c6,22 16,15 71,7 -8,-8 -12,-7 -16,-15z"/>
  <path fill="#F6CC02" d="M397 219c-1,-14 -6,-1 3,-9l5 6 -8 3zm0 0c2,1 4,4 5,6 3,5 3,5 6,10l25 -10 -15 2 1 -14 -9 6c-4,-17 0,-7 -18,-15l0 -17c0,-1 -1,-2 -2,-3l-4 -16c-1,0 -1,-1 -2,-3 0,-1 0,-2 -1,-2l0 54c7,1 10,1 14,2z"/>
  <path fill="#F4C902" d="M512 166c4,16 2,5 13,16 18,19 6,21 6,21l2 -17c2,-17 4,-27 -3,-38 -6,3 -13,13 -18,18z"/>
  <path fill="#F6CC02" d="M1732 350l-2 10 11 6c1,-1 1,-4 2,-4 3,8 2,-5 3,-6 6,-11 -4,1 5,-7 -9,-9 11,-4 -11,-8l-8 9z"/>
  <path fill="#F6CC02" d="M419 264l13 10c16,-4 8,12 11,-13 -5,-2 -2,-2 -10,0 -9,1 -2,1 -14,3z"/>
  <path fill="#F6CC02" d="M385 254c12,9 4,5 4,-6 1,-15 -2,-4 2,-21 -7,5 -3,0 -7,9 -3,6 -2,7 -4,13l5 5z"/>
  <path fill="#F6CC02" d="M397 219l8 -3 -5 -6c-9,8 -4,-5 -3,9z"/>
  <polygon fill="#F6CC02" points="384,132 383,217 380,281 392,303 428,297 465,299 455,268 448,171 444,135 "/>
  <g clip-path="url(#id0)">
   <g id="_630112912">
    <g>
     <path id="1" fill="#030306" d="M409 233c-1,0 -2,-1 -3,-1 -1,0 -3,0 -3,-1 0,-1 2,-4 3,-5 2,-3 2,-1 3,1 1,3 1,5 0,6zm9 -19c4,0 8,3 9,5 1,2 1,4 0,6 -1,1 -3,2 -4,2 -5,0 -13,-3 -10,-10 1,-2 3,-3 5,-3zm-20 -3c5,0 8,2 7,7 -1,3 -5,5 -9,4 -4,0 -8,-2 -6,-7 1,-3 4,-5 8,-4zm16 -32c-7,0 -12,0 -18,3 -6,3 -10,7 -12,13 -2,7 -3,14 0,20 2,7 -4,10 0,13 2,2 3,2 6,3 3,0 5,1 4,4 -1,2 -3,4 -1,6 2,3 8,4 12,5 3,0 5,0 7,0 2,0 4,-1 5,-3 0,-2 -1,-5 1,-6 2,-2 10,1 12,-3 1,-1 1,-5 1,-7 1,-3 4,-3 7,-11 2,-6 3,-14 0,-20 -1,-3 -4,-6 -6,-9 -5,-4 -12,-8 -18,-8z"/>
     <path fill="#030306" d="M393 258c-1,0 -4,1 -6,1 -2,0 -8,2 -11,1 -2,0 -3,-2 -5,-2 -4,-2 -9,0 -8,5 0,2 1,3 2,4 2,2 0,3 0,6 0,4 5,6 9,4 3,-2 3,-6 7,-8 2,-1 18,-6 20,-6 1,0 15,11 17,13 1,1 1,3 2,5 0,2 0,3 2,5 2,3 7,2 9,-2 1,-2 -1,-4 2,-5 2,-1 3,-1 4,-3 2,-4 -2,-8 -6,-8 -7,0 -6,2 -12,-2 -2,-1 -8,-4 -9,-5 0,-1 0,-1 0,-1 0,0 0,0 1,0l10 -2c7,-1 7,0 11,2 4,2 9,0 8,-5 0,-2 -1,-3 -2,-4 -2,-2 0,-3 0,-6 -1,-4 -5,-7 -9,-4 -3,2 -3,5 -7,8 -1,0 -18,6 -20,6 -1,0 -7,-5 -9,-6 -3,-3 -5,-4 -8,-7 -2,-2 -1,-7 -4,-10 -2,-3 -7,-2 -9,1 -1,3 1,5 -2,6 -2,0 -3,1 -4,3 -2,4 2,8 6,8 2,0 4,-1 6,-1 3,1 10,5 13,7 0,0 2,1 2,2z"/>
    </g>
   </g>
  </g>
  <polygon fill="none" points="384,132 383,217 380,281 392,303 428,297 465,299 455,268 448,171 444,135 "/>
 </g>
</svg>
